<?xml version="1.0" encoding="UTF-8"?>
<xmeml version="4">
	<project>
		<name>Cutscene_1Project</name>
		<children>
			<clip id="masterclip-1">
				<masterclipid>masterclip-1</masterclipid>
				<ismasterclip>TRUE</ismasterclip>
				<duration>391</duration>
				<rate>
					<timebase>30</timebase>
					<ntsc>FALSE</ntsc>
				</rate>
				<in>0</in>
				<out>391</out>
				<name>IntroPanning</name>
				<media>
					<video>
						<track>
							<clipitem id="clipitem-1">
								<masterclipid>masterclip-1</masterclipid>
								<ismasterclip>TRUE</ismasterclip>
								<name>IntroPanning</name>
								<enabled>TRUE</enabled>
								<duration>391</duration>
								<rate>
									<timebase>30</timebase>
									<ntsc>FALSE</ntsc>
								</rate>
								<in>0</in>
								<out>391</out>
								<anamorphic>FALSE</anamorphic>
								<pixelaspectratio>square</pixelaspectratio>
								<fielddominance>lower</fielddominance>
								<file id="file-1">
									<name>IntroPanning.avi</name>
									<pathurl>file://localhost/D%3a/Projects/Unreal%20Projects/Meshworld/Content/Video%20Recording/IntroPanning.avi</pathurl>
									<rate>
										<timebase>30</timebase>
										<ntsc>FALSE</ntsc>
									</rate>
									<duration>391</duration>
									<timecode>
										<rate>
											<timebase>30</timebase>
											<ntsc>FALSE</ntsc>
										</rate>
										<string>00:00:00:00</string>
										<frame>0</frame>
									</timecode>
									<media>
										<video>
											<samplecharacteristics>
												<rate>
													<timebase>30</timebase>
													<ntsc>FALSE</ntsc>
												</rate>
												<width>1920</width>
												<height>1080</height>
												<anamorphic>FALSE</anamorphic>
												<pixelaspectratio>square</pixelaspectratio>
												<fielddominance>lower</fielddominance>
											</samplecharacteristics>
										</video>
									</media>
								</file>
							</clipitem>
						</track>
					</video>
				</media>
				<logginginfo>
					<description />
					<scene />
					<shottake />
					<good />
					<originalvideofilename />
					<originalaudiofilename />
					<lognote>[UE4ShotSection=/Game/Cinematics/Cutscene_1.Cutscene_1:MovieScene_0.MovieSceneCinematicShotTrack_0.MovieSceneCinematicShotSection_12]</lognote>
				</logginginfo>
				<colorinfo>
					<lut />
					<lut1 />
					<asc_sop />
					<asc_sat />
					<lut2 />
				</colorinfo>
			</clip>
			<clip id="masterclip-2">
				<masterclipid>masterclip-2</masterclipid>
				<ismasterclip>TRUE</ismasterclip>
				<duration>152</duration>
				<rate>
					<timebase>30</timebase>
					<ntsc>FALSE</ntsc>
				</rate>
				<in>0</in>
				<out>152</out>
				<name>SwarmerFlower</name>
				<media>
					<video>
						<track>
							<clipitem id="clipitem-2">
								<masterclipid>masterclip-2</masterclipid>
								<ismasterclip>TRUE</ismasterclip>
								<name>SwarmerFlower</name>
								<enabled>TRUE</enabled>
								<duration>152</duration>
								<rate>
									<timebase>30</timebase>
									<ntsc>FALSE</ntsc>
								</rate>
								<in>0</in>
								<out>152</out>
								<anamorphic>FALSE</anamorphic>
								<pixelaspectratio>square</pixelaspectratio>
								<fielddominance>lower</fielddominance>
								<file id="file-2">
									<name>SwarmerFlower.avi</name>
									<pathurl>file://localhost/D%3a/Projects/Unreal%20Projects/Meshworld/Content/Video%20Recording/SwarmerFlower.avi</pathurl>
									<rate>
										<timebase>30</timebase>
										<ntsc>FALSE</ntsc>
									</rate>
									<duration>152</duration>
									<timecode>
										<rate>
											<timebase>30</timebase>
											<ntsc>FALSE</ntsc>
										</rate>
										<string>00:00:00:00</string>
										<frame>0</frame>
									</timecode>
									<media>
										<video>
											<samplecharacteristics>
												<rate>
													<timebase>30</timebase>
													<ntsc>FALSE</ntsc>
												</rate>
												<width>1920</width>
												<height>1080</height>
												<anamorphic>FALSE</anamorphic>
												<pixelaspectratio>square</pixelaspectratio>
												<fielddominance>lower</fielddominance>
											</samplecharacteristics>
										</video>
									</media>
								</file>
							</clipitem>
						</track>
					</video>
				</media>
				<logginginfo>
					<description />
					<scene />
					<shottake />
					<good />
					<originalvideofilename />
					<originalaudiofilename />
					<lognote>[UE4ShotSection=/Game/Cinematics/Cutscene_1.Cutscene_1:MovieScene_0.MovieSceneCinematicShotTrack_0.MovieSceneCinematicShotSection_11]</lognote>
				</logginginfo>
				<colorinfo>
					<lut />
					<lut1 />
					<asc_sop />
					<asc_sat />
					<lut2 />
				</colorinfo>
			</clip>
			<clip id="masterclip-3">
				<masterclipid>masterclip-3</masterclipid>
				<ismasterclip>TRUE</ismasterclip>
				<duration>173</duration>
				<rate>
					<timebase>30</timebase>
					<ntsc>FALSE</ntsc>
				</rate>
				<in>0</in>
				<out>173</out>
				<name>WaterfallPan</name>
				<media>
					<video>
						<track>
							<clipitem id="clipitem-3">
								<masterclipid>masterclip-3</masterclipid>
								<ismasterclip>TRUE</ismasterclip>
								<name>WaterfallPan</name>
								<enabled>TRUE</enabled>
								<duration>173</duration>
								<rate>
									<timebase>30</timebase>
									<ntsc>FALSE</ntsc>
								</rate>
								<in>0</in>
								<out>173</out>
								<anamorphic>FALSE</anamorphic>
								<pixelaspectratio>square</pixelaspectratio>
								<fielddominance>lower</fielddominance>
								<file id="file-3">
									<name>WaterfallPan.avi</name>
									<pathurl>file://localhost/D%3a/Projects/Unreal%20Projects/Meshworld/Content/Video%20Recording/WaterfallPan.avi</pathurl>
									<rate>
										<timebase>30</timebase>
										<ntsc>FALSE</ntsc>
									</rate>
									<duration>173</duration>
									<timecode>
										<rate>
											<timebase>30</timebase>
											<ntsc>FALSE</ntsc>
										</rate>
										<string>00:00:00:00</string>
										<frame>0</frame>
									</timecode>
									<media>
										<video>
											<samplecharacteristics>
												<rate>
													<timebase>30</timebase>
													<ntsc>FALSE</ntsc>
												</rate>
												<width>1920</width>
												<height>1080</height>
												<anamorphic>FALSE</anamorphic>
												<pixelaspectratio>square</pixelaspectratio>
												<fielddominance>lower</fielddominance>
											</samplecharacteristics>
										</video>
									</media>
								</file>
							</clipitem>
						</track>
					</video>
				</media>
				<logginginfo>
					<description />
					<scene />
					<shottake />
					<good />
					<originalvideofilename />
					<originalaudiofilename />
					<lognote>[UE4ShotSection=/Game/Cinematics/Cutscene_1.Cutscene_1:MovieScene_0.MovieSceneCinematicShotTrack_0.MovieSceneCinematicShotSection_13]</lognote>
				</logginginfo>
				<colorinfo>
					<lut />
					<lut1 />
					<asc_sop />
					<asc_sat />
					<lut2 />
				</colorinfo>
			</clip>
			<clip id="masterclip-4">
				<masterclipid>masterclip-4</masterclipid>
				<ismasterclip>TRUE</ismasterclip>
				<duration>116</duration>
				<rate>
					<timebase>30</timebase>
					<ntsc>FALSE</ntsc>
				</rate>
				<in>0</in>
				<out>116</out>
				<name>SwarmerStepsOnFlower</name>
				<media>
					<video>
						<track>
							<clipitem id="clipitem-4">
								<masterclipid>masterclip-4</masterclipid>
								<ismasterclip>TRUE</ismasterclip>
								<name>SwarmerStepsOnFlower</name>
								<enabled>TRUE</enabled>
								<duration>116</duration>
								<rate>
									<timebase>30</timebase>
									<ntsc>FALSE</ntsc>
								</rate>
								<in>0</in>
								<out>116</out>
								<anamorphic>FALSE</anamorphic>
								<pixelaspectratio>square</pixelaspectratio>
								<fielddominance>lower</fielddominance>
								<file id="file-4">
									<name>SwarmerStepsOnFlower.avi</name>
									<pathurl>file://localhost/D%3a/Projects/Unreal%20Projects/Meshworld/Content/Video%20Recording/SwarmerStepsOnFlower.avi</pathurl>
									<rate>
										<timebase>30</timebase>
										<ntsc>FALSE</ntsc>
									</rate>
									<duration>116</duration>
									<timecode>
										<rate>
											<timebase>30</timebase>
											<ntsc>FALSE</ntsc>
										</rate>
										<string>00:00:00:00</string>
										<frame>0</frame>
									</timecode>
									<media>
										<video>
											<samplecharacteristics>
												<rate>
													<timebase>30</timebase>
													<ntsc>FALSE</ntsc>
												</rate>
												<width>1920</width>
												<height>1080</height>
												<anamorphic>FALSE</anamorphic>
												<pixelaspectratio>square</pixelaspectratio>
												<fielddominance>lower</fielddominance>
											</samplecharacteristics>
										</video>
									</media>
								</file>
							</clipitem>
						</track>
					</video>
				</media>
				<logginginfo>
					<description />
					<scene />
					<shottake />
					<good />
					<originalvideofilename />
					<originalaudiofilename />
					<lognote>[UE4ShotSection=/Game/Cinematics/Cutscene_1.Cutscene_1:MovieScene_0.MovieSceneCinematicShotTrack_0.MovieSceneCinematicShotSection_17]</lognote>
				</logginginfo>
				<colorinfo>
					<lut />
					<lut1 />
					<asc_sop />
					<asc_sat />
					<lut2 />
				</colorinfo>
			</clip>
			<clip id="masterclip-5">
				<masterclipid>masterclip-5</masterclipid>
				<ismasterclip>TRUE</ismasterclip>
				<duration>40</duration>
				<rate>
					<timebase>30</timebase>
					<ntsc>FALSE</ntsc>
				</rate>
				<in>0</in>
				<out>40</out>
				<name>PortalSpawnInWide</name>
				<media>
					<video>
						<track>
							<clipitem id="clipitem-5">
								<masterclipid>masterclip-5</masterclipid>
								<ismasterclip>TRUE</ismasterclip>
								<name>PortalSpawnInWide</name>
								<enabled>TRUE</enabled>
								<duration>40</duration>
								<rate>
									<timebase>30</timebase>
									<ntsc>FALSE</ntsc>
								</rate>
								<in>0</in>
								<out>40</out>
								<anamorphic>FALSE</anamorphic>
								<pixelaspectratio>square</pixelaspectratio>
								<fielddominance>lower</fielddominance>
								<file id="file-5">
									<name>PortalSpawnInWide.avi</name>
									<pathurl>file://localhost/D%3a/Projects/Unreal%20Projects/Meshworld/Content/Video%20Recording/PortalSpawnInWide.avi</pathurl>
									<rate>
										<timebase>30</timebase>
										<ntsc>FALSE</ntsc>
									</rate>
									<duration>40</duration>
									<timecode>
										<rate>
											<timebase>30</timebase>
											<ntsc>FALSE</ntsc>
										</rate>
										<string>00:00:00:00</string>
										<frame>0</frame>
									</timecode>
									<media>
										<video>
											<samplecharacteristics>
												<rate>
													<timebase>30</timebase>
													<ntsc>FALSE</ntsc>
												</rate>
												<width>1920</width>
												<height>1080</height>
												<anamorphic>FALSE</anamorphic>
												<pixelaspectratio>square</pixelaspectratio>
												<fielddominance>lower</fielddominance>
											</samplecharacteristics>
										</video>
									</media>
								</file>
							</clipitem>
						</track>
					</video>
				</media>
				<logginginfo>
					<description />
					<scene />
					<shottake />
					<good />
					<originalvideofilename />
					<originalaudiofilename />
					<lognote>[UE4ShotSection=/Game/Cinematics/Cutscene_1.Cutscene_1:MovieScene_0.MovieSceneCinematicShotTrack_0.MovieSceneCinematicShotSection_1]</lognote>
				</logginginfo>
				<colorinfo>
					<lut />
					<lut1 />
					<asc_sop />
					<asc_sat />
					<lut2 />
				</colorinfo>
			</clip>
			<clip id="masterclip-6">
				<masterclipid>masterclip-6</masterclipid>
				<ismasterclip>TRUE</ismasterclip>
				<duration>225</duration>
				<rate>
					<timebase>30</timebase>
					<ntsc>FALSE</ntsc>
				</rate>
				<in>0</in>
				<out>225</out>
				<name>PortalSpawnInCloseUp</name>
				<media>
					<video>
						<track>
							<clipitem id="clipitem-6">
								<masterclipid>masterclip-6</masterclipid>
								<ismasterclip>TRUE</ismasterclip>
								<name>PortalSpawnInCloseUp</name>
								<enabled>TRUE</enabled>
								<duration>225</duration>
								<rate>
									<timebase>30</timebase>
									<ntsc>FALSE</ntsc>
								</rate>
								<in>0</in>
								<out>225</out>
								<anamorphic>FALSE</anamorphic>
								<pixelaspectratio>square</pixelaspectratio>
								<fielddominance>lower</fielddominance>
								<file id="file-6">
									<name>PortalSpawnInCloseUp.avi</name>
									<pathurl>file://localhost/D%3a/Projects/Unreal%20Projects/Meshworld/Content/Video%20Recording/PortalSpawnInCloseUp.avi</pathurl>
									<rate>
										<timebase>30</timebase>
										<ntsc>FALSE</ntsc>
									</rate>
									<duration>225</duration>
									<timecode>
										<rate>
											<timebase>30</timebase>
											<ntsc>FALSE</ntsc>
										</rate>
										<string>00:00:00:00</string>
										<frame>0</frame>
									</timecode>
									<media>
										<video>
											<samplecharacteristics>
												<rate>
													<timebase>30</timebase>
													<ntsc>FALSE</ntsc>
												</rate>
												<width>1920</width>
												<height>1080</height>
												<anamorphic>FALSE</anamorphic>
												<pixelaspectratio>square</pixelaspectratio>
												<fielddominance>lower</fielddominance>
											</samplecharacteristics>
										</video>
									</media>
								</file>
							</clipitem>
						</track>
					</video>
				</media>
				<logginginfo>
					<description />
					<scene />
					<shottake />
					<good />
					<originalvideofilename />
					<originalaudiofilename />
					<lognote>[UE4ShotSection=/Game/Cinematics/Cutscene_1.Cutscene_1:MovieScene_0.MovieSceneCinematicShotTrack_0.MovieSceneCinematicShotSection_0]</lognote>
				</logginginfo>
				<colorinfo>
					<lut />
					<lut1 />
					<asc_sop />
					<asc_sat />
					<lut2 />
				</colorinfo>
			</clip>
			<clip id="masterclip-7">
				<masterclipid>masterclip-7</masterclipid>
				<ismasterclip>TRUE</ismasterclip>
				<duration>154</duration>
				<rate>
					<timebase>30</timebase>
					<ntsc>FALSE</ntsc>
				</rate>
				<in>0</in>
				<out>154</out>
				<name>LedgeClimbShot</name>
				<media>
					<video>
						<track>
							<clipitem id="clipitem-7">
								<masterclipid>masterclip-7</masterclipid>
								<ismasterclip>TRUE</ismasterclip>
								<name>LedgeClimbShot</name>
								<enabled>TRUE</enabled>
								<duration>154</duration>
								<rate>
									<timebase>30</timebase>
									<ntsc>FALSE</ntsc>
								</rate>
								<in>0</in>
								<out>154</out>
								<anamorphic>FALSE</anamorphic>
								<pixelaspectratio>square</pixelaspectratio>
								<fielddominance>lower</fielddominance>
								<file id="file-7">
									<name>LedgeClimbShot.avi</name>
									<pathurl>file://localhost/D%3a/Projects/Unreal%20Projects/Meshworld/Content/Video%20Recording/LedgeClimbShot.avi</pathurl>
									<rate>
										<timebase>30</timebase>
										<ntsc>FALSE</ntsc>
									</rate>
									<duration>154</duration>
									<timecode>
										<rate>
											<timebase>30</timebase>
											<ntsc>FALSE</ntsc>
										</rate>
										<string>00:00:00:00</string>
										<frame>0</frame>
									</timecode>
									<media>
										<video>
											<samplecharacteristics>
												<rate>
													<timebase>30</timebase>
													<ntsc>FALSE</ntsc>
												</rate>
												<width>1920</width>
												<height>1080</height>
												<anamorphic>FALSE</anamorphic>
												<pixelaspectratio>square</pixelaspectratio>
												<fielddominance>lower</fielddominance>
											</samplecharacteristics>
										</video>
									</media>
								</file>
							</clipitem>
						</track>
					</video>
				</media>
				<logginginfo>
					<description />
					<scene />
					<shottake />
					<good />
					<originalvideofilename />
					<originalaudiofilename />
					<lognote>[UE4ShotSection=/Game/Cinematics/Cutscene_1.Cutscene_1:MovieScene_0.MovieSceneCinematicShotTrack_0.MovieSceneCinematicShotSection_2]</lognote>
				</logginginfo>
				<colorinfo>
					<lut />
					<lut1 />
					<asc_sop />
					<asc_sat />
					<lut2 />
				</colorinfo>
			</clip>
			<clip id="masterclip-8">
				<masterclipid>masterclip-8</masterclipid>
				<ismasterclip>TRUE</ismasterclip>
				<duration>322</duration>
				<rate>
					<timebase>30</timebase>
					<ntsc>FALSE</ntsc>
				</rate>
				<in>0</in>
				<out>322</out>
				<name>LedgeSeatShot</name>
				<media>
					<video>
						<track>
							<clipitem id="clipitem-8">
								<masterclipid>masterclip-8</masterclipid>
								<ismasterclip>TRUE</ismasterclip>
								<name>LedgeSeatShot</name>
								<enabled>TRUE</enabled>
								<duration>322</duration>
								<rate>
									<timebase>30</timebase>
									<ntsc>FALSE</ntsc>
								</rate>
								<in>0</in>
								<out>322</out>
								<anamorphic>FALSE</anamorphic>
								<pixelaspectratio>square</pixelaspectratio>
								<fielddominance>lower</fielddominance>
								<file id="file-8">
									<name>LedgeSeatShot.avi</name>
									<pathurl>file://localhost/D%3a/Projects/Unreal%20Projects/Meshworld/Content/Video%20Recording/LedgeSeatShot.avi</pathurl>
									<rate>
										<timebase>30</timebase>
										<ntsc>FALSE</ntsc>
									</rate>
									<duration>322</duration>
									<timecode>
										<rate>
											<timebase>30</timebase>
											<ntsc>FALSE</ntsc>
										</rate>
										<string>00:00:00:00</string>
										<frame>0</frame>
									</timecode>
									<media>
										<video>
											<samplecharacteristics>
												<rate>
													<timebase>30</timebase>
													<ntsc>FALSE</ntsc>
												</rate>
												<width>1920</width>
												<height>1080</height>
												<anamorphic>FALSE</anamorphic>
												<pixelaspectratio>square</pixelaspectratio>
												<fielddominance>lower</fielddominance>
											</samplecharacteristics>
										</video>
									</media>
								</file>
							</clipitem>
						</track>
					</video>
				</media>
				<logginginfo>
					<description />
					<scene />
					<shottake />
					<good />
					<originalvideofilename />
					<originalaudiofilename />
					<lognote>[UE4ShotSection=/Game/Cinematics/Cutscene_1.Cutscene_1:MovieScene_0.MovieSceneCinematicShotTrack_0.MovieSceneCinematicShotSection_4]</lognote>
				</logginginfo>
				<colorinfo>
					<lut />
					<lut1 />
					<asc_sop />
					<asc_sat />
					<lut2 />
				</colorinfo>
			</clip>
			<sequence id="sequence-1">
				<duration>1504</duration>
				<rate>
					<timebase>30</timebase>
					<ntsc>FALSE</ntsc>
				</rate>
				<name>Cutscene_1</name>
				<media>
					<video>
						<format>
							<samplecharacteristics>
								<rate>
									<timebase>30</timebase>
									<ntsc>FALSE</ntsc>
								</rate>
								<width>1920</width>
								<height>1080</height>
								<anamorphic>FALSE</anamorphic>
								<pixelaspectratio>square</pixelaspectratio>
								<fielddominance>lower</fielddominance>
							</samplecharacteristics>
						</format>
						<track>
							<clipitem id="clipitem-9">
								<masterclipid>masterclip-1</masterclipid>
								<ismasterclip>FALSE</ismasterclip>
								<name>IntroPanning</name>
								<enabled>TRUE</enabled>
								<duration>391</duration>
								<rate>
									<timebase>30</timebase>
									<ntsc>FALSE</ntsc>
								</rate>
								<start>-8</start>
								<end>383</end>
								<in>0</in>
								<out>391</out>
								<file id="file-1" />
							</clipitem>
							<clipitem id="clipitem-10">
								<masterclipid>masterclip-2</masterclipid>
								<ismasterclip>FALSE</ismasterclip>
								<name>SwarmerFlower</name>
								<enabled>TRUE</enabled>
								<duration>152</duration>
								<rate>
									<timebase>30</timebase>
									<ntsc>FALSE</ntsc>
								</rate>
								<start>383</start>
								<end>535</end>
								<in>0</in>
								<out>152</out>
								<file id="file-2" />
							</clipitem>
							<clipitem id="clipitem-11">
								<masterclipid>masterclip-3</masterclipid>
								<ismasterclip>FALSE</ismasterclip>
								<name>WaterfallPan</name>
								<enabled>TRUE</enabled>
								<duration>173</duration>
								<rate>
									<timebase>30</timebase>
									<ntsc>FALSE</ntsc>
								</rate>
								<start>464</start>
								<end>637</end>
								<in>0</in>
								<out>173</out>
								<file id="file-3" />
							</clipitem>
							<clipitem id="clipitem-12">
								<masterclipid>masterclip-4</masterclipid>
								<ismasterclip>FALSE</ismasterclip>
								<name>SwarmerStepsOnFlower</name>
								<enabled>TRUE</enabled>
								<duration>116</duration>
								<rate>
									<timebase>30</timebase>
									<ntsc>FALSE</ntsc>
								</rate>
								<start>637</start>
								<end>753</end>
								<in>0</in>
								<out>116</out>
								<file id="file-4" />
							</clipitem>
							<clipitem id="clipitem-13">
								<masterclipid>masterclip-5</masterclipid>
								<ismasterclip>FALSE</ismasterclip>
								<name>PortalSpawnInWide</name>
								<enabled>TRUE</enabled>
								<duration>40</duration>
								<rate>
									<timebase>30</timebase>
									<ntsc>FALSE</ntsc>
								</rate>
								<start>753</start>
								<end>793</end>
								<in>0</in>
								<out>40</out>
								<file id="file-5" />
							</clipitem>
							<clipitem id="clipitem-14">
								<masterclipid>masterclip-6</masterclipid>
								<ismasterclip>FALSE</ismasterclip>
								<name>PortalSpawnInCloseUp</name>
								<enabled>TRUE</enabled>
								<duration>225</duration>
								<rate>
									<timebase>30</timebase>
									<ntsc>FALSE</ntsc>
								</rate>
								<start>793</start>
								<end>1018</end>
								<in>0</in>
								<out>225</out>
								<file id="file-6" />
							</clipitem>
							<clipitem id="clipitem-15">
								<masterclipid>masterclip-7</masterclipid>
								<ismasterclip>FALSE</ismasterclip>
								<name>LedgeClimbShot</name>
								<enabled>TRUE</enabled>
								<duration>154</duration>
								<rate>
									<timebase>30</timebase>
									<ntsc>FALSE</ntsc>
								</rate>
								<start>1018</start>
								<end>1172</end>
								<in>0</in>
								<out>154</out>
								<file id="file-7" />
							</clipitem>
							<clipitem id="clipitem-16">
								<masterclipid>masterclip-8</masterclipid>
								<ismasterclip>FALSE</ismasterclip>
								<name>LedgeSeatShot</name>
								<enabled>TRUE</enabled>
								<duration>322</duration>
								<rate>
									<timebase>30</timebase>
									<ntsc>FALSE</ntsc>
								</rate>
								<start>1172</start>
								<end>1494</end>
								<in>0</in>
								<out>322</out>
								<file id="file-8" />
							</clipitem>
							<enabled>TRUE</enabled>
							<locked>FALSE</locked>
						</track>
					</video>
					<audio>
						<numOutputChannels>1</numOutputChannels>
						<format>
							<samplecharacteristics>
								<depth>16</depth>
								<samplerate>44100</samplerate>
							</samplecharacteristics>
						</format>
						<outputs>
							<group>
								<index>1</index>
								<numchannels>1</numchannels>
								<downmix>0</downmix>
								<channel>
									<index>1</index>
								</channel>
							</group>
						</outputs>
					</audio>
				</media>
				<timecode>
					<rate>
						<timebase>30</timebase>
						<ntsc>FALSE</ntsc>
					</rate>
					<string>00:00:00:00</string>
					<frame>0</frame>
				</timecode>
			</sequence>
		</children>
	</project>
</xmeml>
